# xmcd
#
# Track frame offsets:
#	150
#	19064
#	34045
#	59519
#	76438
#	91862
#	123222
#	138737
#
# Disc length: 2392 seconds
#
# Revision: 0
# Processed by: cddbd v1.5.2PL0 Copyright (c) Steve Scherf et al.
# Submitted via: EasyCDDAExtractor 12.1.0.1
#
DISCID=63095608
DTITLE=Francis Lalanne - Toi mon vieux copain
DYEAR=2012
DGENRE=Chanson francaise
TTITLE0=Toi mon vieux copain
TTITLE1=Des mains de chomeur
TTITLE2=Si tu te moques d'un mec qui pleure
TTITLE3=Melissandre
TTITLE4=Le champignon nucleaire
TTITLE5=Berceuse pour un enfant de banlieue
TTITLE6=Pleure un bon coup ma p'tite Vero
TTITLE7=Que la vie est triste
EXTD=
EXTT0=
EXTT1=
EXTT2=
EXTT3=
EXTT4=
EXTT5=
EXTT6=
EXTT7=
PLAYORDER=
